<?xml version="1.0" encoding="UTF-8"?>
<svg width="103px" height="103px" viewBox="0 0 103 103" version="1.1" xmlns="http://www.w3.org/2000/svg" xmlns:xlink="http://www.w3.org/1999/xlink">
    <!-- Generator: Sketch 44.1 (41455) - http://www.bohemiancoding.com/sketch -->
    <title>big-pause</title>
    <desc>Created with Sketch.</desc>
    <defs>
        <circle id="path-1" cx="48.5" cy="48.5" r="48.5"></circle>
        <filter x="-4.6%" y="-4.6%" width="109.3%" height="109.3%" filterUnits="objectBoundingBox" id="filter-2">
            <feOffset dx="0" dy="0" in="SourceAlpha" result="shadowOffsetOuter1"></feOffset>
            <feGaussianBlur stdDeviation="1.5" in="shadowOffsetOuter1" result="shadowBlurOuter1"></feGaussianBlur>
            <feComposite in="shadowBlurOuter1" in2="SourceAlpha" operator="out" result="shadowBlurOuter1"></feComposite>
            <feColorMatrix values="0 0 0 0 0   0 0 0 0 0   0 0 0 0 0  0 0 0 0.420827672 0" type="matrix" in="shadowBlurOuter1"></feColorMatrix>
        </filter>
    </defs>
    <g id="video-recognition-challenge" stroke="none" stroke-width="1" fill="none" fill-rule="evenodd">
        <g id="big-pause" transform="translate(3.000000, 3.000000)">
            <g id="pause-icon-base">
                <use fill="black" fill-opacity="1" filter="url(#filter-2)" xlink:href="#path-1"></use>
                <use fill-opacity="0.270000011" fill="#313131" fill-rule="evenodd" xlink:href="#path-1"></use>
            </g>
            <path d="M54.8644531,31 C53.3768563,31 52.1695313,32.088 52.1695313,33.4285714 L52.1695313,62.5714286 C52.1695313,63.912 53.3768563,65 54.8644531,65 L60.2542969,65 C61.7418938,65 62.9492188,63.912 62.9492188,62.5714286 L62.9492188,33.4285714 C62.9492188,32.088 61.7418938,31 60.2542969,31 L54.8644531,31 Z M38.6949219,31 C37.207325,31 36,32.088 36,33.4285714 L36,62.5714286 C36,63.912 37.207325,65 38.6949219,65 L44.0847656,65 C45.5723625,65 46.7796875,63.912 46.7796875,62.5714286 L46.7796875,33.4285714 C46.7796875,32.088 45.5723625,31 44.0847656,31 L38.6949219,31 Z" id="pause-icon" fill-opacity="0.8" fill="#FFFFFF"></path>
        </g>
    </g>
</svg>